<svg width="240" height="203" fill="none" xmlns="http://www.w3.org/2000/svg"><path d="M82.582 61.1V44.095c0-17.005 13.563-30.973 30.771-30.973 16.802 0 30.77 13.766 30.77 30.973V61.1" stroke="#D6DCE8" stroke-width="1.894" stroke-miterlimit="10" stroke-linecap="round" stroke-linejoin="round"/><path d="M187.849 187.42c.81-.404 1.013-.809 1.822-1.012" stroke="#FF78B7" stroke-width=".612" stroke-linecap="round" stroke-linejoin="round"/><path d="M20.838 201.794h217.216M1 201.794h8.907" stroke="#D6DCE8" stroke-width="2" stroke-miterlimit="10" stroke-linecap="round" stroke-linejoin="round"/><path d="M203.236 28.912H30.759v172.882h172.477V28.912z" fill="#F1F3F9" stroke="#D6DCE8" stroke-width="2" stroke-miterlimit="10"/><path d="M203.64 28.912H78.736v172.882h124.701V28.912h.203z" fill="#fff" stroke="#D6DCE8" stroke-width="2" stroke-miterlimit="10"/><path d="M54.646 28.912H30.76v172.882h23.887V28.912z" fill="#F1F3F9" stroke="#D6DCE8" stroke-width="2" stroke-miterlimit="10"/><path d="M78.737 201.794H30.759v-.405l24.292-24.09 23.686 24.495z" fill="#F1F3F9" stroke="#D6DCE8" stroke-width="2" stroke-miterlimit="10"/><path d="M108.9 67.375c3.441 0 6.275-2.834 6.275-6.275 0-3.442-2.834-6.276-6.275-6.276-3.442 0-6.276 2.834-6.276 6.276 0 3.441 2.834 6.275 6.276 6.275zm61.541 0c3.441 0 6.275-2.834 6.275-6.275 0-3.442-2.834-6.276-6.275-6.276-3.442 0-6.276 2.834-6.276 6.276.202 3.441 2.834 6.275 6.276 6.275z" fill="#D6DCE8"/><path d="M108.899 61.1V44.095c0-17.005 13.563-30.973 30.77-30.973 16.803 0 30.771 13.766 30.771 30.973V61.1" stroke="#D6DCE8" stroke-width="1.894" stroke-miterlimit="10" stroke-linecap="round" stroke-linejoin="round"/><path d="M190.065 6.158c4.371-2.803 9.528-4.372 15.02-4.372 15.021 0 27.239 12.106 27.239 27.127 0 15.02-12.218 27.126-27.239 27.126-15.02 0-27.238-12.106-27.238-27.126-.225-9.528 4.708-17.823 12.218-22.755z" fill="#D6DCE8" stroke="#AAB2C5" stroke-width="2" stroke-miterlimit="10"/><path d="M207.913 28.713l-.002.031v.031c0 2.198-.455 3.617-1.024 4.454-.553.814-1.215 1.097-1.806 1.097s-1.253-.283-1.805-1.097c-.569-.837-1.025-2.256-1.025-4.454 0-2.048.451-3.478 1.033-4.363.578-.88 1.251-1.187 1.797-1.187 1.067 0 3.089 1.384 2.832 5.488zm-13.954.062c0 7.774 4.962 13.283 11.122 13.283 6.161 0 11.122-5.509 11.122-13.283 0-7.806-4.989-13.01-11.122-13.01-6.132 0-11.122 5.204-11.122 13.01z" fill="#fff" stroke="#AAB2C5" stroke-width="2"/><path d="M120.186 116.567c-6.954 0-12.795-4.449-15.02-10.845-.557-1.39.278-2.781 1.669-3.337 1.39-.556 2.781.278 3.338 1.669 1.39 4.171 5.563 7.229 10.013 7.229 4.451 0 8.623-2.78 10.014-7.229.556-1.391 1.947-2.225 3.338-1.669s2.225 1.947 1.669 3.337c-2.225 6.674-8.067 10.845-15.021 10.845zm42.003 0c-6.954 0-12.795-4.449-15.02-10.845-.557-1.39.278-2.781 1.669-3.337 1.39-.556 2.781.278 3.337 1.669 1.391 4.171 5.564 7.229 10.014 7.229 4.451 0 8.623-2.78 10.014-7.229.556-1.391 1.947-2.225 3.338-1.669s2.225 1.947 1.669 3.337c-2.226 6.674-8.067 10.845-15.021 10.845zm-20.861 34.047a6.397 6.397 0 100-12.792 6.397 6.397 0 100 12.792zM24.81 9.413V0h36.378v9.413l-24.823 29.95h25.251v9.412h-38.09v-9.413l24.823-29.95h-23.54zm29.96 70.594v-5.99h23.538v5.99L62.473 99.261h16.263v5.99H53.913v-5.99L69.75 80.007H54.77z" fill="#9FA8BA"/></svg>